<svg width="53" height="32" viewBox="0 0 53 32" fill="none" xmlns="http://www.w3.org/2000/svg">
<path d="M39.4619 31.0024C37.8707 30.7141 36.0752 29.9961 34.5764 29.0487L34.0805 28.7353L35.4957 27.6991C38.0603 25.8214 39.812 24.3324 41.8638 22.2862C43.8921 20.2633 45.4768 18.3692 46.9458 16.2121C47.7552 15.0237 48.9649 13.043 48.8813 13.0431C48.8616 13.0431 48.542 13.4611 48.1711 13.972C44.255 19.367 38.6522 24.3179 33.6335 26.8184C33.0738 27.0972 32.5982 27.2973 32.5767 27.2629C32.3455 26.8943 31.7773 24.8873 31.5698 23.7062C31.3575 22.4983 31.3425 20.5503 31.5381 19.5997C31.9138 17.7739 32.6724 16.4733 34.0762 15.2483C35.7707 13.7697 37.9468 12.7111 41.5246 11.6253C45.7238 10.3508 47.0531 9.81966 48.6594 8.77466C49.7982 8.03378 50.9785 6.86877 51.6901 5.78319C51.9072 5.45199 52.1055 5.17986 52.1308 5.17843C52.2101 5.17401 52.485 6.62675 52.592 7.61565C52.7507 9.08142 52.7869 10.5474 52.701 12.0313C52.2013 20.6738 49.0536 27.8163 44.7155 30.1521C43.9416 30.5686 43.0999 30.8702 42.3541 30.998C41.5803 31.1306 40.1822 31.1327 39.4626 31.0023L39.4619 31.0024ZM20.9979 30.8971C17.8252 30.6193 15.1851 29.5535 12.9855 27.6622C10.6121 25.622 8.65983 22.2155 7.91961 18.8229C7.59074 17.3157 7.48263 16.1752 7.37462 13.0732C7.31862 11.4655 7.22594 9.89436 7.1606 9.44503C6.64601 5.90663 5.06439 3.65059 1.44777 1.29705L0.907344 0.945309L1.33788 0.812826C1.99716 0.609948 3.39023 0.334686 4.24863 0.237663C5.55128 0.0904438 8.69147 0.183849 10.2687 0.416737C16.029 1.2672 21.9724 3.63106 26.5913 6.90881C29.2049 8.76345 31.5083 11.0838 32.8247 13.1879L33.1533 13.7132L32.2429 14.6016C31.2485 15.572 30.84 16.1078 30.4061 17.0111C29.4574 18.9865 29.4391 21.5441 30.3537 24.3365C30.4908 24.7552 30.5926 25.1081 30.5798 25.1206C30.5669 25.1331 30.4464 24.938 30.3118 24.687C27.608 19.6428 24.2606 15.5783 20.1803 12.3848C19.1396 11.5703 16.8354 9.99623 16.6839 9.99629C16.6637 9.9963 17.1665 10.513 17.8014 11.1446C20.8728 14.1999 23.2809 17.1928 25.2263 20.3719C25.9293 21.5207 27.0666 23.7817 27.5158 24.9231C28.1508 26.537 28.659 28.4934 28.6875 29.4341L28.7017 29.9032L28.033 30.1088C25.9912 30.7367 22.9978 31.072 20.9985 30.8968L20.9979 30.8971ZM30.6422 25.3544C30.6154 25.3117 30.6095 25.2611 30.629 25.242C30.6485 25.2229 30.6841 25.2579 30.7081 25.3197C30.7579 25.448 30.7151 25.4706 30.6422 25.3544Z" fill="#F88500"/>
</svg>
