<svg width="16" height="17" viewBox="0 0 16 17" fill="none" xmlns="http://www.w3.org/2000/svg">
<path d="M8.00356 4.42709C5.73214 4.42709 3.89999 6.24396 3.89999 8.49646C3.89999 10.749 5.73214 12.5658 8.00356 12.5658C10.275 12.5658 12.1071 10.749 12.1071 8.49646C12.1071 6.24396 10.275 4.42709 8.00356 4.42709ZM8.00356 11.1421C6.53571 11.1421 5.33571 9.95563 5.33571 8.49646C5.33571 7.03729 6.53214 5.85084 8.00356 5.85084C9.47499 5.85084 10.6714 7.03729 10.6714 8.49646C10.6714 9.95563 9.47142 11.1421 8.00356 11.1421ZM13.2321 4.26063C13.2321 4.78834 12.8036 5.20979 12.275 5.20979C11.7428 5.20979 11.3178 4.78479 11.3178 4.26063C11.3178 3.73646 11.7464 3.31146 12.275 3.31146C12.8036 3.31146 13.2321 3.73646 13.2321 4.26063ZM15.95 5.22396C15.8893 3.9525 15.5964 2.82625 14.6571 1.89834C13.7214 0.970418 12.5857 0.680002 11.3036 0.616252C9.98213 0.541877 6.02142 0.541877 4.69999 0.616252C3.42142 0.67646 2.28571 0.966877 1.34642 1.89479C0.407136 2.82271 0.11785 3.94896 0.0535644 5.22042C-0.0214355 6.53084 -0.0214355 10.4585 0.0535644 11.769C0.114279 13.0404 0.407136 14.1667 1.34642 15.0946C2.28571 16.0225 3.41785 16.3129 4.69999 16.3767C6.02142 16.451 9.98213 16.451 11.3036 16.3767C12.5857 16.3165 13.7214 16.026 14.6571 15.0946C15.5928 14.1667 15.8857 13.0404 15.95 11.769C16.025 10.4585 16.025 6.53438 15.95 5.22396ZM14.2428 13.175C13.9643 13.8692 13.425 14.404 12.7214 14.6838C11.6678 15.0981 9.16785 15.0025 8.00356 15.0025C6.83928 15.0025 4.33571 15.0946 3.28571 14.6838C2.58571 14.4075 2.04642 13.8727 1.76428 13.175C1.34642 12.1302 1.44285 9.65104 1.44285 8.49646C1.44285 7.34188 1.34999 4.85917 1.76428 3.81792C2.04285 3.12375 2.58214 2.58896 3.28571 2.30917C4.33928 1.89479 6.83928 1.99042 8.00356 1.99042C9.16785 1.99042 11.6714 1.89834 12.7214 2.30917C13.4214 2.58542 13.9607 3.12021 14.2428 3.81792C14.6607 4.86271 14.5643 7.34188 14.5643 8.49646C14.5643 9.65104 14.6607 12.1338 14.2428 13.175Z" fill="#6F7A8B" fill-opacity="0.75"/>
</svg>
