<svg width="19" height="11" viewBox="0 0 19 11" fill="none" xmlns="http://www.w3.org/2000/svg">
<path d="M18.567 0.745937C18.6975 0.31625 18.567 0 17.9391 0H15.8616C15.3326 0 15.0892 0.271562 14.9587 0.574062C14.9587 0.574062 13.9005 3.08687 12.405 4.71625C11.9218 5.18719 11.6996 5.33844 11.4351 5.33844C11.3046 5.33844 11.1035 5.18719 11.1035 4.7575V0.745937C11.1035 0.230312 10.9554 0 10.518 0H7.25184C6.92029 0 6.72277 0.240625 6.72277 0.464063C6.72277 0.952188 7.47053 1.06563 7.54813 2.44062V5.42438C7.54813 6.0775 7.4282 6.19781 7.16366 6.19781C6.45823 6.19781 4.74403 3.67469 3.72821 0.787188C3.52363 0.226875 3.32259 0 2.78998 0H0.712487C0.119923 0 0 0.271562 0 0.574062C0 1.11031 0.705432 3.77438 3.28379 7.29438C5.00151 9.69719 7.42115 11 9.6221 11C10.9448 11 11.107 10.7113 11.107 10.2128C11.107 7.91656 10.9871 7.7 11.6502 7.7C11.9571 7.7 12.4862 7.85125 13.7207 9.00969C15.1315 10.3847 15.3643 11 16.1544 11H18.2319C18.8245 11 19.1243 10.7113 18.9514 10.1406C18.5564 8.94094 15.8863 6.47281 15.7664 6.30781C15.4595 5.92281 15.5477 5.75094 15.7664 5.40719C15.7699 5.40375 18.306 1.925 18.567 0.745937Z" fill="#6F7A8B" fill-opacity="0.75"/>
</svg>
