<svg width="16" height="14" viewBox="0 0 16 14" fill="none" xmlns="http://www.w3.org/2000/svg">
<path d="M14.3554 3.67191C14.3655 3.81404 14.3655 3.95619 14.3655 4.09832C14.3655 8.43333 11.066 13.4283 5.03555 13.4283C3.17767 13.4283 1.45179 12.8902 0 11.9562C0.26397 11.9867 0.517752 11.9968 0.791878 11.9968C2.32485 11.9968 3.73605 11.4791 4.86296 10.5958C3.42133 10.5653 2.2132 9.62118 1.79694 8.32168C2.00001 8.35212 2.20304 8.37243 2.41626 8.37243C2.71067 8.37243 3.00511 8.3318 3.2792 8.26077C1.77666 7.95618 0.649721 6.63639 0.649721 5.04248V5.00188C1.08625 5.24554 1.59391 5.39782 2.13195 5.4181C1.24869 4.82926 0.670034 3.82419 0.670034 2.68712C0.670034 2.078 0.832441 1.51962 1.11672 1.03231C2.73095 3.02216 5.15736 4.32163 7.87816 4.46379C7.82741 4.22013 7.79694 3.96635 7.79694 3.71253C7.79694 1.9054 9.25888 0.433334 11.0761 0.433334C12.0203 0.433334 12.8731 0.829273 13.4721 1.46887C14.2132 1.32674 14.9238 1.05262 15.5533 0.676992C15.3096 1.43843 14.7919 2.07803 14.1117 2.48409C14.7716 2.41306 15.4112 2.23028 16 1.9765C15.5534 2.62622 14.995 3.20488 14.3554 3.67191Z" fill="white"/>
</svg>
