<svg width="9" height="15" viewBox="0 0 9 15" fill="none" xmlns="http://www.w3.org/2000/svg">
<g clip-path="url(#clip0_3_61)">
<path d="M7.14636 14.1785L0.70745 7.88953C0.654722 7.83853 0.612794 7.77744 0.584159 7.7099C0.555524 7.64235 0.540767 7.56974 0.540767 7.49638C0.540767 7.42302 0.555524 7.35041 0.584159 7.28287C0.612794 7.21533 0.654723 7.15424 0.70745 7.10323C0.815288 6.99868 0.959591 6.94021 1.10979 6.9402C1.26 6.9402 1.4043 6.99868 1.51214 7.10323L7.95105 13.3922C8.00378 13.4432 8.04571 13.5043 8.07434 13.5719C8.10298 13.6394 8.11773 13.712 8.11773 13.7854C8.11773 13.8588 8.10298 13.9314 8.07434 13.9989C8.04571 14.0664 8.00378 14.1275 7.95105 14.1785C7.84321 14.2831 7.69891 14.3416 7.54871 14.3416C7.39851 14.3416 7.2542 14.2831 7.14636 14.1785Z" fill="#59606C"/>
<path d="M7.9511 1.60619L1.51219 7.8952C1.40435 7.99975 1.26004 8.05822 1.10984 8.05822C0.95964 8.05822 0.815336 7.99975 0.707498 7.8952C0.654771 7.84419 0.612842 7.7831 0.584207 7.71556C0.555571 7.64802 0.540815 7.57541 0.540815 7.50205C0.540816 7.42868 0.555572 7.35607 0.584207 7.28853C0.612842 7.22099 0.654771 7.1599 0.707498 7.10889L7.14641 0.819887C7.25443 0.71552 7.39884 0.657304 7.54904 0.657567C7.69925 0.657831 7.84345 0.716556 7.9511 0.821301C8.00361 0.872286 8.04535 0.93329 8.07386 1.0007C8.10237 1.06811 8.11705 1.14056 8.11705 1.21375C8.11705 1.28693 8.10237 1.35938 8.07386 1.42679C8.04535 1.4942 8.00361 1.5552 7.9511 1.60619Z" fill="#59606C"/>
</g>
<defs>
<clipPath id="clip0_3_61">
<rect width="8.026" height="14.312" fill="white" transform="translate(0.317749 0.343994)"/>
</clipPath>
</defs>
</svg>
